<?xml version="1.0" standalone="no"?><!DOCTYPE svg PUBLIC "-//W3C//DTD SVG 1.1//EN" "http://www.w3.org/Graphics/SVG/1.1/DTD/svg11.dtd"><svg t="1721097577639" class="icon" viewBox="0 0 1024 1024" version="1.1" xmlns="http://www.w3.org/2000/svg" p-id="15126" width="123" height="123" xmlns:xlink="http://www.w3.org/1999/xlink"><path d="M561.220267 632.558933h327.611733a32.426667 32.426667 0 0 0 32.768-32.085333v-128.477867a32.426667 32.426667 0 0 0-32.768-32.085333h-327.611733a32.426667 32.426667 0 0 0-32.768 32.085333v18.397867h-131.2768l-92.9792-91.170133a32.938667 32.938667 0 0 0 0.9216-7.850667V302.08A102.4 102.4 0 1 0 238.933333 301.397333v87.722667l-126.839466 124.347733a31.812267 31.812267 0 0 0 0 45.602134L238.933333 683.349333v136.942934c0 18.2272 14.813867 33.006933 33.109334 33.006933h256.443733v36.181333c0 17.7152 14.677333 32.085333 32.768 32.085334h327.5776a32.426667 32.426667 0 0 0 32.768-32.085334v-128.477866a32.426667 32.426667 0 0 0-32.768-32.119467h-327.611733a32.426667 32.426667 0 0 0-32.768 32.085333v26.350934H305.152v-115.029334l115.575467-113.322666a32.494933 32.494933 0 0 0 2.423466-2.628267h105.3696v44.066133c0 17.749333 14.677333 32.119467 32.768 32.119467z m294.843733 160.597334v64.2048h-262.075733v-14.404267a32.802133 32.802133 0 0 0 0-45.2608v-4.539733h262.075733z m-589.687467-173.738667L181.589333 536.234667l84.821334-83.182934 84.855466 83.182934-84.855466 83.182933zM856.064 568.32h-262.075733v-22.357333a32.802133 32.802133 0 0 0 2.798933-41.8816h259.2768v64.238933z" fill="#38B4C1" p-id="15127"></path></svg>